<svg width="193" height="80" viewBox="0 0 193 80" fill="none" xmlns="http://www.w3.org/2000/svg">
<path d="M37.6338 23.073C34.9598 20.8663 31.2992 19.7759 26.6262 19.7759H14.9954V21.4115H26.4185C30.3906 21.4115 33.9733 22.2163 36.18 24.1374C38.3867 26.0586 40.0223 28.8624 40.0223 32.3413C40.0223 35.7163 38.5685 38.1826 36.3098 40.0778C34.0512 41.973 29.9492 42.8038 25.8733 42.8038H12.7627V44.4393H25.9771C30.8838 44.4393 34.7262 43.3749 37.504 41.2461C40.256 39.1172 41.6579 36.1057 41.6579 32.2374C41.6579 28.2913 40.3079 25.2538 37.6338 23.073Z" fill="white"/>
<path d="M36.6465 25.4096C34.9849 24.1375 33.0897 23.125 27.6897 23.125H18.707V24.7087C18.707 24.7087 22.7311 24.6567 27.482 24.7087C32.0772 24.7606 33.7647 25.2798 35.3224 26.4221C37.2955 27.876 38.5416 29.6933 38.5416 32.2115C38.5416 34.6519 37.2955 36.3654 35.2965 37.8452C33.2715 39.351 30.1561 39.351 28.884 39.4029C28.4166 39.4029 22.2118 39.4029 22.2118 39.4029V40.9865C22.2118 40.9865 25.2753 41.0385 27.1965 40.9865C31.558 40.8827 34.1541 40.6231 36.5686 38.8317C38.8272 37.1442 40.0215 34.9375 40.0215 32.1337C40.0215 28.4471 38.1522 26.6038 36.6465 25.4096Z" fill="white"/>
<path d="M35.8422 27.5124C34.5961 26.7336 33.5057 26.2144 28.3394 26.2144H21.8749V27.2528H28.1576C32.7269 27.2528 34.4403 28.0576 34.9855 28.3951C36.024 29.0182 37.374 30.0567 37.374 32.1336C37.374 33.4576 36.5951 35.1451 35.4269 35.7942C34.3624 36.3913 32.4153 36.9365 29.0144 36.9365H7.93359V37.9749H29.0663C33.1942 37.9749 34.5961 37.5076 36.0499 36.7028C37.5038 35.898 38.4903 34.2365 38.4903 32.1336C38.4903 29.7451 37.1663 28.3432 35.8422 27.5124Z" fill="white"/>
<path d="M39.9434 39.0134C37.2694 36.8067 33.6088 35.7163 28.9357 35.7163H21.1473V37.3519H28.7021C32.6742 37.3519 36.2569 38.1827 38.4636 40.0778C40.6703 41.973 42.3319 44.8028 42.3319 48.2817C42.3319 51.6567 40.904 54.123 38.6194 56.0182C36.3348 57.9134 32.2588 58.7442 28.1828 58.7442H15.0723V60.3798H28.2867C33.1934 60.3798 37.0357 59.3154 39.8136 57.1865C42.5915 55.0577 43.9675 52.0461 43.9675 48.1778C43.9415 44.2577 42.6175 41.2202 39.9434 39.0134Z" fill="white"/>
<path d="M38.9565 41.3496C37.295 40.1034 35.3998 39.0649 29.9998 39.0649H17.7979V40.6486C17.7979 40.6486 25.0411 40.5967 29.7921 40.6486C34.3873 40.7005 36.0748 41.2198 37.6325 42.3621C39.6055 43.8159 40.8517 45.6332 40.8517 48.1515C40.8517 50.5919 39.6055 52.3053 37.6065 53.7851C35.5815 55.2909 32.4661 55.2909 31.194 55.3428C30.7267 55.3428 24.5219 55.3428 24.5219 55.3428V56.9265C24.5219 56.9265 27.6113 56.9784 29.5065 56.9265C33.868 56.8226 36.4642 56.563 38.8786 54.7717C41.1373 53.0842 42.3315 50.8774 42.3315 48.0736C42.3315 44.413 40.4882 42.5438 38.9565 41.3496Z" fill="white"/>
<path d="M20.3936 46.7499H31.8426V45.8672H20.3936V46.7499Z" fill="white"/>
<path d="M25.1201 49.8393H31.7663V49.0864H25.1201V49.8393Z" fill="white"/>
<path d="M15.0723 46.7499H18.4473V45.8672H15.0723V46.7499Z" fill="white"/>
<path d="M12.9424 49.8915H23.2491V49.0088H12.9424V49.8915Z" fill="white"/>
<path d="M15.4873 27.1747H19.5113V26.4478H15.4873V27.1747Z" fill="white"/>
<path d="M12.71 33.0944H21.8744V32.2637H12.71V33.0944Z" fill="white"/>
<path d="M12.9424 56.8226H22.626V55.7842H12.9424V56.8226Z" fill="white"/>
<path d="M10.5547 60.2759H12.9691V58.7441H10.5547V60.2759Z" fill="white"/>
<path d="M16.5781 30.4982H31.7916V29.6675H16.5781V30.4982Z" fill="white"/>
<path d="M24.1846 33.0944H31.5057V32.2637H24.1846V33.0944Z" fill="white"/>
<path d="M38.1528 43.6085C36.9066 42.8557 35.8163 42.3364 30.6499 42.3364H22.4461V43.3489H30.4941C35.0634 43.3489 36.8028 44.1278 37.322 44.4393C38.3345 45.0364 39.7105 46.023 39.7105 48.048C39.7105 49.346 38.9316 50.9557 37.7634 51.5787C36.6989 52.1499 34.7518 52.6691 31.3509 52.6691H10.2441V53.6816H31.3768C35.5047 53.6816 36.9066 53.2403 38.3605 52.4614C39.8143 51.6826 40.7749 50.0989 40.7749 48.048C40.8009 45.7893 39.4768 44.4393 38.1528 43.6085Z" fill="white"/>
<path d="M59.8039 41.3504V50.6187H64.8664C67.0472 50.6187 68.7606 50.2033 69.9549 49.3726C71.1231 48.6197 71.7981 47.3216 71.7722 45.9197C71.7722 42.8822 69.202 41.3504 64.0875 41.3504H59.8039ZM59.8039 30.3168V38.6245H63.6202C65.6712 38.6245 67.2549 38.2351 68.4231 37.4302C69.5654 36.7033 70.2404 35.4052 70.1885 34.0552C70.1885 31.5629 68.1635 30.2908 64.0875 30.2908L59.8039 30.3168ZM56.0654 53.3447V27.5908H65.126C67.8779 27.5908 70.0587 28.136 71.6683 29.2264C73.2779 30.3168 74.0827 31.7447 74.0827 33.4841C74.1087 34.886 73.5895 36.262 72.6289 37.3004C71.6424 38.3908 70.3183 39.1437 68.6049 39.611V39.6889C70.7597 39.8966 72.4731 40.5456 73.7452 41.662C75.0174 42.7264 75.7183 44.3101 75.6664 45.9716C75.6664 48.1783 74.6799 49.9437 72.7327 51.3197C70.7856 52.6956 68.3193 53.3706 65.3337 53.3706H56.0654V53.3447Z" fill="white"/>
<path d="M79.8193 53.3446H83.4539V34.9639H79.8193V53.3446ZM81.6625 30.2648C81.0654 30.2908 80.4683 30.0831 80.001 29.7196C79.5597 29.4081 79.3 28.8888 79.326 28.3696C79.326 27.8244 79.5856 27.3052 80.001 26.9937C80.4683 26.6302 81.0654 26.4225 81.6625 26.4485C82.2856 26.4225 82.8827 26.6302 83.35 26.9937C84.1029 27.5388 84.2587 28.5773 83.7395 29.3302C83.6356 29.486 83.5058 29.6158 83.35 29.7196C82.8827 30.109 82.2856 30.2908 81.6625 30.2648Z" fill="white"/>
<path d="M99.5251 53.1623C98.6684 53.5517 97.5261 53.7334 96.1242 53.7334C92.1521 53.7334 90.153 51.9421 90.153 48.3334V37.4555H86.2588V34.9373H90.153V30.4459L93.7876 29.4854V34.9373H99.4992V37.4555H93.7876V47.8142C93.7876 49.0344 94.0473 49.9171 94.5665 50.4623C95.0857 51.0075 95.9424 51.2411 97.1367 51.2411C97.9674 51.2671 98.7982 51.0594 99.4992 50.618L99.5251 53.1623Z" fill="white"/>
<path d="M132.575 53.344H129.174V37.4555C129.2 35.9238 129.278 34.3661 129.46 32.8344H129.382C129.174 33.6132 128.862 34.3921 128.499 35.119L118.504 53.318H116.816L106.847 35.2488C106.458 34.47 106.172 33.6652 105.964 32.8084H105.886C106.016 34.3402 106.068 35.8978 106.042 37.4555V53.318H102.745V29.6411H107.288L116.271 46.1527C116.79 47.0613 117.258 48.0219 117.621 49.0084H117.751C118.348 47.7103 118.815 46.7498 119.153 46.1007L128.317 29.6411H132.601V53.344" fill="white"/>
<path d="M151.059 44.0244L145.582 44.6475C143.894 44.8292 142.622 45.1667 141.765 45.66C140.908 46.1532 140.467 47.01 140.467 48.2302C140.467 49.1129 140.908 49.9436 141.661 50.4369C142.44 51.008 143.505 51.2936 144.829 51.2936C146.646 51.2936 148.126 50.7744 149.294 49.7619C150.436 48.8013 151.085 47.3734 151.059 45.8677V44.0244ZM154.694 53.3446H151.059V50.4628H150.982C149.398 52.6696 147.061 53.76 143.998 53.76C141.739 53.76 139.974 53.2667 138.676 52.3061C137.43 51.4234 136.729 49.9696 136.755 48.4378C136.755 45.0109 139.247 43.0119 144.257 42.4407L151.059 41.6619C151.059 38.5465 149.502 36.9888 146.386 36.9888C143.738 36.9628 141.168 37.7417 138.987 39.2475V36.2359C141.22 35.0936 143.79 34.5225 146.698 34.5225C152.046 34.5225 154.694 36.8071 154.694 41.3763V53.3446Z" fill="white"/>
<path d="M171.569 37.923C170.92 37.5336 170.011 37.3259 168.817 37.3259C167.311 37.3 165.883 37.949 164.923 39.1173C163.884 40.3115 163.365 41.9211 163.365 43.9721V53.3442H159.73V34.9634H163.365V38.7538H163.443C163.91 37.5336 164.741 36.4692 165.831 35.7163C166.87 34.9894 168.116 34.6259 169.414 34.6259C170.141 34.6 170.894 34.6778 171.595 34.8855L171.569 37.923Z" fill="white"/>
<path d="M184.237 53.1623C183.38 53.5517 182.238 53.7334 180.836 53.7334C176.864 53.7334 174.865 51.9421 174.865 48.3334V37.4555H170.971V34.9373H174.865V30.4459L178.5 29.4854V34.9373H184.211V37.4555H178.5V47.8142C178.5 49.0344 178.759 49.9171 179.278 50.4623C179.798 51.0075 180.654 51.2411 181.849 51.2411C182.679 51.2671 183.51 51.0594 184.211 50.618L184.237 53.1623Z" fill="white"/>
</svg>
