<svg width="180" height="80" viewBox="0 0 180 80" fill="none" xmlns="http://www.w3.org/2000/svg">
<path fill-rule="evenodd" clip-rule="evenodd" d="M23.8709 54.7009C22.8659 54.7009 22.3633 54.7009 21.9794 54.5052C21.6423 54.3321 21.3677 54.0571 21.1954 53.7184C21 53.3334 21 52.829 21 51.8209V25.3003H25.6038C26.6088 25.3003 27.1113 25.3003 27.4952 25.4965C27.8323 25.669 28.107 25.9447 28.2793 26.2834C28.4747 26.6684 28.4747 27.1722 28.4747 28.1803V46.3609C28.4747 46.8652 28.4747 47.1171 28.5727 47.3096C28.6582 47.479 28.7955 47.6165 28.9647 47.7027C29.1563 47.8009 29.4079 47.8009 29.9098 47.8009H40.6362C41.6412 47.8009 42.1437 47.8009 42.5276 47.9971C42.8647 48.1696 43.1394 48.4452 43.3117 48.784C43.507 49.169 43.507 49.6727 43.507 50.6809V54.7009H23.8709Z" fill="white"/>
<path fill-rule="evenodd" clip-rule="evenodd" d="M102.937 28.1803C102.937 27.1722 102.937 26.6684 103.132 26.2834C103.304 25.9447 103.578 25.669 103.916 25.4965C104.3 25.3003 104.802 25.3003 105.807 25.3003H108.449C109.055 25.3003 109.358 25.3003 109.63 25.389C109.869 25.4672 110.09 25.5959 110.277 25.7659C110.489 25.9578 110.639 26.2215 110.941 26.749L120.131 42.8509V28.1803C120.131 27.1722 120.131 26.6684 120.327 26.2834C120.499 25.9447 120.773 25.669 121.111 25.4965C121.495 25.3003 121.997 25.3003 123.002 25.3003H127.308V51.8165C127.308 52.824 127.308 53.3271 127.113 53.7121C126.941 54.0509 126.667 54.3259 126.329 54.499C125.946 54.6952 125.444 54.6959 124.44 54.6965L121.797 54.6996C121.191 54.7002 120.887 54.7002 120.616 54.6115C120.375 54.5334 120.154 54.4052 119.967 54.2352C119.755 54.0427 119.604 53.779 119.303 53.2509L110.113 37.1509V51.8209C110.113 52.829 110.113 53.3334 109.917 53.7184C109.746 54.0571 109.471 54.3321 109.133 54.5052C108.749 54.7009 108.248 54.7009 107.243 54.7009H102.937V28.1803Z" fill="white"/>
<path fill-rule="evenodd" clip-rule="evenodd" d="M135.053 25.3003H130.747V51.8134C130.747 52.8215 130.747 53.3259 130.942 53.7109C131.115 54.0496 131.389 54.3246 131.727 54.4977C132.11 54.6934 132.613 54.6934 133.618 54.6934H137.924V42.7009H139.099C139.601 42.7009 139.852 42.7009 140.084 42.7646C140.29 42.8209 140.484 42.9134 140.657 43.0384C140.853 43.179 141.011 43.3746 141.327 43.7659L149.314 53.6365C149.63 54.0271 149.789 54.2227 149.984 54.364C150.157 54.4884 150.351 54.5809 150.557 54.6377C150.79 54.7009 151.041 54.7009 151.543 54.7009H158.334L147.771 41.669C147.246 41.0209 146.983 40.6965 146.882 40.3365C146.794 40.019 146.794 39.6828 146.882 39.3653C146.984 39.0053 147.246 38.6815 147.771 38.034L147.772 38.0334L158.104 25.3003H151.387C150.887 25.3003 150.637 25.3003 150.406 25.3634C150.201 25.4197 150.007 25.5115 149.835 25.6353C149.639 25.7747 149.481 25.969 149.165 26.3578L141.355 35.9434C141.038 36.3321 140.88 36.5259 140.685 36.6659C140.512 36.7896 140.319 36.8815 140.114 36.9378C139.882 37.0009 139.632 37.0009 139.132 37.0009H137.924V28.1803C137.924 27.1722 137.924 26.6684 137.729 26.2834C137.556 25.9447 137.282 25.669 136.945 25.4965C136.561 25.3003 136.058 25.3003 135.053 25.3003Z" fill="white"/>
<path fill-rule="evenodd" clip-rule="evenodd" d="M46.9112 54.0174C46.7158 53.6324 46.7158 53.1281 46.7158 52.1199V27.88C46.7158 26.8719 46.7158 26.3681 46.9112 25.9831C47.0835 25.6444 47.3575 25.3687 47.6953 25.1962C48.0792 25 48.5817 25 49.5867 25H58.9766C61.4791 25 62.7308 25 63.7576 25.2762C66.5436 26.025 68.7204 28.2081 69.4669 31.0037C69.7416 32.0337 69.7416 33.2894 69.7416 35.8C69.7416 37.4343 69.0038 38.0337 68.3745 38.5437C67.907 38.9231 67.4993 39.2537 67.4993 39.9256C67.4993 40.5875 67.9744 40.9181 68.525 41.3018C69.2853 41.8312 70.1904 42.4612 70.1904 44.2006C70.1904 46.7068 70.1904 47.9606 69.9164 48.9887C69.1704 51.7862 66.9931 53.9712 64.2052 54.7199C63.1802 54.9956 61.9311 54.9962 59.4323 54.9968L49.5873 54.9999C48.5823 55.0006 48.0798 55.0006 47.6959 54.8043C47.3582 54.6318 47.0835 54.3562 46.9112 54.0174ZM60.0996 34.8375C60.6626 33.95 61.1508 33.1819 61.1508 32.2C61.1508 30.2119 59.5409 28.6 57.5552 28.6C55.5688 28.6 53.9589 30.2875 53.9589 32.2C53.9589 33.1819 54.4602 33.95 55.0388 34.8375C55.831 36.0506 56.768 37.4875 56.768 40.0006C56.768 42.5131 55.831 43.95 55.0388 45.1637C54.4602 46.0506 53.9589 46.8187 53.9589 47.8006C53.9589 49.7887 55.5688 51.4006 57.5552 51.4006C59.5409 51.4006 61.1508 49.7887 61.1508 47.8006C61.1508 46.8187 60.6626 46.0506 60.0996 45.1637C59.3286 43.95 58.4166 42.5131 58.4166 40.0006C58.4166 37.4875 59.3286 36.0506 60.0996 34.8375Z" fill="#FFD634"/>
<path fill-rule="evenodd" clip-rule="evenodd" d="M81.1546 48.851L79.9305 52.6972C79.7014 53.4172 79.5871 53.7772 79.3686 54.0435C79.1764 54.2791 78.9273 54.4616 78.6451 54.5741C78.3262 54.701 77.9491 54.7009 77.1957 54.7009H71.7822L80.4717 27.1616C80.6995 26.4391 80.8131 26.0779 81.0316 25.8104C81.2239 25.5741 81.4736 25.391 81.7557 25.2785C82.076 25.1504 82.453 25.1504 83.2084 25.1504H89.1711C89.9264 25.1504 90.3041 25.1504 90.6237 25.2785C90.9065 25.391 91.1556 25.5741 91.3478 25.8104C91.5663 26.0779 91.6799 26.4385 91.9078 27.161L100.602 54.7009H95.1857C94.4322 54.7009 94.0558 54.701 93.7362 54.5741C93.4547 54.4616 93.2056 54.2791 93.0127 54.0435C92.7948 53.7772 92.68 53.4172 92.4509 52.6972L91.2267 48.851H81.1546ZM82.6815 44.051H89.6992L86.1897 33.0254L82.6815 44.051Z" fill="white"/>
</svg>
