<svg width="260" height="80" viewBox="0 0 260 80" fill="none" xmlns="http://www.w3.org/2000/svg">
<mask id="mask0_53_78" style="mask-type:luminance" maskUnits="userSpaceOnUse" x="10" y="25" width="240" height="30">
<path d="M250 25H10V55H250V25Z" fill="white"/>
</mask>
<g mask="url(#mask0_53_78)">
<path d="M56.6677 45.541L46.411 27.7495C44.1624 24.0413 38.679 24.0019 36.5093 27.9073L25.7399 46.4089C23.7279 49.8014 26.2131 54.0619 30.237 54.0619H51.8154C55.8787 54.0619 58.9163 49.683 56.6677 45.541Z" fill="#3156AA"/>
<path d="M41.8749 46.9218L41.2437 45.8172C40.652 44.7915 39.3501 42.5824 39.3501 42.5824L30.6714 27.513C28.4229 24.1598 23.0973 23.8837 20.8487 28.1047L10.7498 45.5805C8.65904 49.2492 11.1443 54.0225 15.6809 54.0621H37.141H46.2931H51.7371C46.1749 54.1015 44.3997 51.2216 41.8749 46.9218Z" fill="#1972E2"/>
<path d="M41.8747 46.9217L41.2435 45.8173C40.6518 44.7916 39.35 42.5824 39.35 42.5824L33.7483 32.7202L25.7007 46.4484C23.6889 49.841 26.1741 54.1014 30.198 54.1014H37.1014H46.2535H51.737C46.1353 54.062 44.3994 51.2217 41.8747 46.9217Z" fill="url(#paint0_linear_53_78)"/>
<path d="M246.876 52.6809C245.416 52.6809 244.272 52.3653 243.405 51.813C242.496 51.2213 242.023 50.3533 242.023 49.1699V31.9702H244.312C245.141 31.9702 245.851 32.6408 245.851 33.5087V48.657C245.851 48.6966 245.851 49.4066 246.442 49.9983C246.796 50.3533 247.231 50.5506 247.822 50.5506H248.256C248.415 50.5506 248.572 50.7084 248.572 50.8661V52.7203L246.876 52.6809Z" fill="#326AD5"/>
<path d="M197.564 52.6802C195.197 52.6802 193.264 52.0491 191.804 50.7867C191.056 50.1555 190.543 49.4454 190.227 48.6564C189.911 47.8675 189.753 46.7234 189.753 45.1849C189.753 43.6859 189.911 42.5024 190.227 41.7134C190.503 40.9639 191.016 40.2932 191.766 39.6621C193.224 38.3997 195.157 37.7686 197.524 37.7686C199.891 37.7686 201.824 38.3997 203.284 39.6621C204.034 40.2932 204.547 41.0034 204.823 41.7134C205.139 42.5418 205.296 43.6859 205.296 45.1849C205.296 46.7234 205.139 47.8675 204.823 48.6564C204.507 49.4454 203.994 50.1555 203.244 50.7867C201.864 52.0491 199.931 52.6802 197.564 52.6802ZM197.564 39.9382C194.96 39.9382 193.659 41.7134 193.659 45.2244C193.659 48.7748 194.96 50.5499 197.564 50.5499C200.167 50.5499 201.47 48.7748 201.47 45.2638C201.47 41.7134 200.129 39.9382 197.564 39.9382Z" fill="#326AD5"/>
<path d="M213.896 52.6809C211.844 52.6809 209.951 52.1286 208.334 51.0634C208.176 50.9056 207.86 50.7084 207.466 50.4717C207.387 50.4323 207.309 50.3139 207.309 50.1956V31.9702H209.636C210.464 31.9702 211.174 32.6803 211.174 33.5087V38.8343L211.884 38.4398C212.713 38.0059 213.817 37.8086 215.237 37.8086C217.723 37.8086 219.616 38.5582 220.879 40.0177C221.983 41.3196 222.536 43.0553 222.536 45.1856C222.536 47.3159 221.904 49.0516 220.641 50.3139C219.181 51.8919 216.894 52.6809 213.896 52.6809ZM214.29 39.9389C213.423 39.9389 212.436 40.2544 211.331 40.9251L211.174 41.004V49.5644L211.331 49.6827C212.2 50.235 213.226 50.5111 214.29 50.5111C215.71 50.5111 216.816 49.9194 217.564 48.736C218.196 47.7891 218.551 46.5663 218.551 45.1856C218.551 41.714 217.091 39.9389 214.29 39.9389Z" fill="#326AD5"/>
<path d="M231.649 52.6408C227.309 52.6408 224.588 49.8005 224.588 45.1849C224.588 40.6089 227.269 37.7686 231.569 37.7686C233.226 37.7686 234.646 38.2025 235.791 39.0309L236.028 39.1887V38.0447H239.065C239.262 38.0447 239.381 38.2025 239.381 38.3603V52.3647H235.988V51.1022L235.751 51.2995C234.805 52.1674 233.305 52.6408 231.649 52.6408ZM232.438 40.2932C229.715 40.2932 228.098 42.3841 228.098 45.1849C228.098 47.9858 229.715 50.1555 232.438 50.1555C233.305 50.1555 234.805 50.0767 235.988 48.8931L236.028 48.8537V41.6739L235.988 41.6345C235.159 40.6878 233.936 40.2932 232.438 40.2932Z" fill="#326AD5"/>
<path d="M91.4863 52.4835V31.9307H108.568V33.2325C108.568 34.2581 107.739 35.0866 106.714 35.0866H95.7468V40.6093H106.714V43.7654H95.7468V49.2881H106.714C107.739 49.2881 108.568 50.1165 108.568 51.1422V52.4441L91.4863 52.4835Z" fill="white"/>
<path d="M133.106 31.9307H129.082C128.332 31.9307 127.662 32.2463 127.188 32.838L122.336 38.9525L117.484 32.8774C117.01 32.2857 116.34 31.9701 115.59 31.9701H111.566L119.732 42.2268L111.566 52.4835H115.59C116.34 52.4835 117.01 52.1679 117.484 51.5762L122.336 45.5011L127.228 51.6156C127.701 52.1679 128.372 52.5229 129.121 52.5229H133.145L124.979 42.2662L133.106 31.9307Z" fill="white"/>
<path d="M78.1132 50.3146L83.7149 40.5314V52.4449H87.9755V31.8921H85.3324C84.5039 31.8921 83.7149 32.326 83.3205 33.0755L76.6142 45.3046L69.9079 33.0755C69.5134 32.326 68.7244 31.8921 67.8959 31.8921H65.2529V52.4449H69.5134V40.5314L75.1151 50.3146H78.1132Z" fill="white"/>
<path d="M144.229 52.72C138.312 52.7989 133.499 48.1439 133.46 42.2266C133.46 38.9918 134.446 36.3093 136.3 34.4552C138.154 32.6405 140.837 31.6543 144.032 31.6543C147.78 31.6543 150.739 32.9561 152.869 35.4808L151.528 36.6249C150.699 37.3349 149.476 37.3744 148.569 36.7038C147.385 35.7964 145.886 35.3625 144.19 35.3625C140.008 35.3625 137.523 37.8872 137.523 42.1477C137.523 46.4476 140.087 49.0907 144.19 49.0907C145.926 49.0907 147.385 48.6173 148.569 47.7494C149.437 47.0787 150.66 47.1183 151.528 47.8283L152.869 48.9723C150.739 51.4576 147.898 52.72 144.229 52.72Z" fill="white"/>
<path d="M170.462 52.7197C163.835 52.7197 159.732 48.6959 159.732 42.2262C159.732 35.7567 163.835 31.7329 170.384 31.7329C173.54 31.7329 176.182 32.6402 178.234 34.4943L177.248 35.5989C176.814 36.0723 176.182 36.3484 175.551 36.3484C175.197 36.3484 174.841 36.2695 174.525 36.1117C173.302 35.4805 171.882 35.165 170.384 35.165C166.122 35.165 163.48 37.8869 163.48 42.2658C163.48 46.6839 166.241 49.4059 170.66 49.4059C172.79 49.4059 174.447 49.0115 175.67 48.1437L175.748 48.1042V43.8831H171.054V42.5024C171.054 41.4768 171.882 40.6484 172.908 40.6484H178.707C178.865 40.6484 179.022 40.8061 179.022 40.9639V50.0767C177.011 51.8124 174.131 52.7197 170.462 52.7197Z" fill="#326AD5"/>
<path d="M186.637 52.6809C185.177 52.6809 184.033 52.3653 183.166 51.813C182.258 51.2213 181.784 50.3533 181.784 49.1699V31.9702H184.073C184.901 31.9702 185.611 32.6408 185.611 33.5087V48.657C185.611 48.6966 185.611 49.4066 186.203 49.9983C186.558 50.3533 186.991 50.5506 187.583 50.5506H188.017C188.176 50.5506 188.333 50.7084 188.333 50.8661V52.7203L186.637 52.6809Z" fill="#326AD5"/>
</g>
<defs>
<linearGradient id="paint0_linear_53_78" x1="22.8366" y1="40.2107" x2="47.7675" y2="49.4237" gradientUnits="userSpaceOnUse">
<stop stop-color="#264CA2" stop-opacity="0"/>
<stop offset="1" stop-color="#234588"/>
</linearGradient>
</defs>
</svg>
