<svg width="158" height="80" viewBox="0 0 158 80" fill="none" xmlns="http://www.w3.org/2000/svg">
<path fill-rule="evenodd" clip-rule="evenodd" d="M138.13 28.8545H133.882V33.6448H138.13V50.1448H142.908V33.6448H147.156V28.8545H142.908H138.13Z" fill="white"/>
<path fill-rule="evenodd" clip-rule="evenodd" d="M106.275 28.8545H116.496C120.015 28.8545 122.868 31.7141 122.868 35.2416C122.868 36.6083 122.44 37.8747 121.71 38.9134C122.839 40.1061 123.531 41.7178 123.531 43.4916C123.531 47.166 120.56 50.1448 116.895 50.1448H106.275V28.8545ZM111.054 36.8384H116.496C117.376 36.8384 118.089 36.1234 118.089 35.2416C118.089 34.3597 117.376 33.6448 116.496 33.6448H111.054V36.8384ZM111.054 45.3544H116.895C117.921 45.3544 118.753 44.5205 118.753 43.4916C118.753 42.4627 117.921 41.6286 116.895 41.6286H111.054V45.3544Z" fill="white"/>
<path fill-rule="evenodd" clip-rule="evenodd" d="M96.8499 28.8545H86.8945V50.1448H91.6731V43.4916H96.8499C97.0044 43.4916 97.1577 43.4867 97.3098 43.4773L99.0401 50.1448H104.15L101.897 41.461C103.286 40.1287 104.15 38.252 104.15 36.173C104.15 32.1311 100.882 28.8545 96.8499 28.8545ZM96.8499 33.6448H91.6731V38.7012H96.8499C98.2427 38.7012 99.3719 37.5693 99.3719 36.173C99.3719 34.7768 98.2427 33.6448 96.8499 33.6448Z" fill="white"/>
<path d="M72.2933 28.8545H67.5146V42.161C67.5146 46.9377 71.3775 50.8102 76.1426 50.8102C80.9077 50.8102 84.7706 46.9377 84.7706 42.161V28.8545H79.9919V42.161C79.9919 44.2921 78.2685 46.0198 76.1426 46.0198C74.0167 46.0198 72.2933 44.2921 72.2933 42.161V28.8545Z" fill="white"/>
<path fill-rule="evenodd" clip-rule="evenodd" d="M60.613 42.1602V36.8376C60.613 34.7064 58.8896 32.9788 56.7637 32.9788C54.6378 32.9788 52.9143 34.7064 52.9143 36.8376V42.1602C52.9143 44.2915 54.6378 46.0191 56.7637 46.0191C58.8896 46.0191 60.613 44.2915 60.613 42.1602ZM56.7637 28.1885C51.9986 28.1885 48.1357 32.0609 48.1357 36.8376V42.1602C48.1357 46.9371 51.9986 50.8094 56.7637 50.8094C61.5288 50.8094 65.3916 46.9371 65.3916 42.1602V36.8376C65.3916 32.0609 61.5288 28.1885 56.7637 28.1885Z" fill="white"/>
<path d="M132.024 28.8516H125.652V50.1419H132.024V28.8516Z" fill="#369562"/>
<path d="M129.104 27.5225H128.573V51.4741H129.104V27.5225Z" fill="#369562"/>
<path d="M29.0256 25.75L24.2691 23L19.5127 25.75L24.2691 28.5L29.0256 25.75Z" fill="#369562"/>
<path d="M10 31.25L14.7564 28.5L19.5128 31.25L14.7564 34L14.7564 45L24.2693 50.5L33.7822 45V34L29.0257 31.25L33.7822 28.5L38.5386 31.25V47.75L24.2693 56L10 47.75L10 31.25Z" fill="#369562"/>
<path d="M28.9953 42.2671V36.7671L24.2388 34.0171L19.4824 36.7671V42.2671L24.2388 45.0171L28.9953 42.2671Z" fill="#369562"/>
</svg>
