<svg width="180" height="80" viewBox="0 0 180 80" fill="none" xmlns="http://www.w3.org/2000/svg">
<path d="M24.6126 41.4094V54H12V41.4094H24.6126ZM39.8607 41.4095C39.4568 48.2522 34.1043 53.5951 27.2481 54V41.4094L39.8607 41.4095ZM116.589 30.6673C119.847 30.6673 122.722 32.3214 124.249 34.8662L121.221 36.6221C120.356 35.0443 118.625 34.0773 116.589 34.0773C113.103 34.0773 110.813 36.4949 110.813 39.9303C110.813 43.3404 113.103 45.7579 116.589 45.7579C118.625 45.7579 120.381 44.7909 121.221 43.2386L124.249 44.9945C122.748 47.5393 119.872 49.1934 116.589 49.1934C111.194 49.1934 107.326 45.1217 107.326 39.9303C107.326 34.7135 111.194 30.6673 116.589 30.6673ZM135.039 30.6673C140.179 30.6673 144.302 34.7135 144.302 39.9303C144.302 45.1217 140.179 49.1934 135.039 49.1934C129.899 49.1934 125.801 45.1217 125.801 39.9303C125.801 34.7135 129.899 30.6673 135.039 30.6673ZM55.0816 31.0236C59.9931 31.0236 63.6576 34.9171 63.6576 39.9303C63.6576 44.9436 59.9931 48.8371 55.0816 48.8371H48.0071V31.0236H55.0816ZM77.0432 31.0236V34.3827H69.6633V38.1744H76.407V41.4827H69.6633V45.478H77.1704V48.8371H66.1515V31.0236H77.0432ZM90.5306 31.0236V34.3827H83.1507V38.1744H89.8944V41.4827H83.1507V45.478H90.6578V48.8371H79.6389V31.0236H90.5306ZM99.7682 31.0236C103.204 31.0236 105.85 33.6702 105.85 37.0038C105.85 40.3375 103.204 42.9841 99.7682 42.9841H96.6381V48.8371H93.1263V31.0236H99.7682ZM150.282 31.0236V48.8371H146.771V31.0236H150.282ZM156.263 31.0236L163.897 41.8898V31.0236H167.409V48.8371H164.737L157.102 37.9454V48.8371H153.591V31.0236H156.263ZM135.039 34.0773C131.807 34.0773 129.288 36.4949 129.288 39.9303C129.288 43.3404 131.807 45.7579 135.039 45.7579C138.271 45.7579 140.79 43.3404 140.79 39.9303C140.79 36.4949 138.271 34.0773 135.039 34.0773ZM55.0816 34.3827H51.5189V45.478H55.0816C58.1608 45.478 60.2985 43.2131 60.2985 39.9303C60.2985 36.6476 58.1608 34.3827 55.0816 34.3827ZM99.7682 34.3064H96.6381V39.7013H99.7682C101.27 39.7013 102.364 38.5307 102.364 37.0038C102.364 35.4515 101.27 34.3064 99.7682 34.3064ZM24.6126 26V38.5906H12V26H24.6126ZM27.2481 26C34.1043 26.4049 39.4568 31.7478 39.8607 38.5906H27.2481V26Z" fill="white"/>
<g clip-path="url(#clip0_57_20)">
<path d="M24.6126 41.4094V54H12V41.4094H24.6126ZM39.8607 41.4095C39.4568 48.2522 34.1043 53.5951 27.2481 54V41.4094L39.8607 41.4095ZM116.589 30.6673C119.847 30.6673 122.722 32.3214 124.249 34.8662L121.221 36.6221C120.356 35.0443 118.625 34.0773 116.589 34.0773C113.103 34.0773 110.813 36.4949 110.813 39.9303C110.813 43.3404 113.103 45.7579 116.589 45.7579C118.625 45.7579 120.381 44.7909 121.221 43.2386L124.249 44.9945C122.748 47.5393 119.872 49.1934 116.589 49.1934C111.194 49.1934 107.326 45.1217 107.326 39.9303C107.326 34.7135 111.194 30.6673 116.589 30.6673ZM135.039 30.6673C140.179 30.6673 144.302 34.7135 144.302 39.9303C144.302 45.1217 140.179 49.1934 135.039 49.1934C129.899 49.1934 125.801 45.1217 125.801 39.9303C125.801 34.7135 129.899 30.6673 135.039 30.6673ZM55.0816 31.0236C59.9931 31.0236 63.6576 34.9171 63.6576 39.9303C63.6576 44.9436 59.9931 48.8371 55.0816 48.8371H48.0071V31.0236H55.0816ZM77.0432 31.0236V34.3827H69.6633V38.1744H76.407V41.4827H69.6633V45.478H77.1704V48.8371H66.1515V31.0236H77.0432ZM90.5306 31.0236V34.3827H83.1507V38.1744H89.8944V41.4827H83.1507V45.478H90.6578V48.8371H79.6389V31.0236H90.5306ZM99.7682 31.0236C103.204 31.0236 105.85 33.6702 105.85 37.0038C105.85 40.3375 103.204 42.9841 99.7682 42.9841H96.6381V48.8371H93.1263V31.0236H99.7682ZM150.282 31.0236V48.8371H146.771V31.0236H150.282ZM156.263 31.0236L163.897 41.8898V31.0236H167.409V48.8371H164.737L157.102 37.9454V48.8371H153.591V31.0236H156.263ZM135.039 34.0773C131.807 34.0773 129.288 36.4949 129.288 39.9303C129.288 43.3404 131.807 45.7579 135.039 45.7579C138.271 45.7579 140.79 43.3404 140.79 39.9303C140.79 36.4949 138.271 34.0773 135.039 34.0773ZM55.0816 34.3827H51.5189V45.478H55.0816C58.1608 45.478 60.2985 43.2131 60.2985 39.9303C60.2985 36.6476 58.1608 34.3827 55.0816 34.3827ZM99.7682 34.3064H96.6381V39.7013H99.7682C101.27 39.7013 102.364 38.5307 102.364 37.0038C102.364 35.4515 101.27 34.3064 99.7682 34.3064ZM24.6126 26V38.5906H12V26H24.6126ZM27.2481 26C34.1043 26.4049 39.4568 31.7478 39.8607 38.5906H27.2481V26Z" fill="#FE7701"/>
</g>
<defs>
<clipPath id="clip0_57_20">
<rect width="30" height="28" fill="white" transform="translate(12 26)"/>
</clipPath>
</defs>
</svg>
