<svg width="158" height="80" viewBox="0 0 158 80" fill="none" xmlns="http://www.w3.org/2000/svg">
<g clip-path="url(#clip0_63_2)">
<mask id="mask0_63_2" style="mask-type:luminance" maskUnits="userSpaceOnUse" x="7" y="23" width="145" height="33">
<path d="M7 23H151.105V56H7V23Z" fill="white"/>
</mask>
<g mask="url(#mask0_63_2)">
<path fill-rule="evenodd" clip-rule="evenodd" d="M126.3 32.8073H130.392V28.7139H126.3V32.8073ZM104.547 39.6243C105.329 37.5502 107.332 36.0734 109.68 36.0734C112.027 36.0734 114.03 37.5502 114.812 39.6243H104.547ZM109.68 32.2675C104.55 32.2675 100.39 36.4277 100.39 41.5598C100.39 46.6919 104.55 50.8515 109.68 50.8515C113.2 50.8515 116.262 48.8937 117.839 46.008L114.406 44.3422C113.452 45.9597 111.693 47.0455 109.68 47.0455C107.136 47.0455 104.997 45.3134 104.377 42.964H114.982C114.981 42.9657 114.981 42.9681 114.981 42.9702H118.865C118.935 42.5101 118.971 42.0391 118.971 41.5598C118.971 36.4277 114.811 32.2675 109.68 32.2675ZM120.05 50.3561H124.142V46.2626H120.05V50.3561ZM126.3 50.3561H130.392V34.6069H126.3V50.3561ZM141.815 47.0455C138.786 47.0455 136.33 44.5894 136.33 41.5598C136.33 38.5296 138.786 36.0734 141.815 36.0734C144.844 36.0734 147.3 38.5296 147.3 41.5598C147.3 44.5894 144.844 47.0455 141.815 47.0455ZM141.813 32.2675C136.683 32.2675 132.523 36.4277 132.523 41.5598C132.523 46.6919 136.683 50.8515 141.813 50.8515C146.945 50.8515 151.105 46.6919 151.105 41.5598C151.105 36.4277 146.945 32.2675 141.813 32.2675ZM56.2481 38.1346V42.367H61.9704C61.6716 43.5764 61.0809 44.6602 60.2339 45.526C58.9563 46.8319 57.1848 47.5515 55.2453 47.5515C51.2209 47.5515 47.9463 44.2765 47.9463 40.2508C47.9463 36.2251 51.2209 32.9498 55.2453 32.9498C57.4011 32.9498 59.3827 33.8727 60.7565 35.4644L64.0327 32.7868C61.8605 30.2406 58.6376 28.7169 55.2453 28.7169C48.8875 28.7169 43.7148 33.8911 43.7148 40.2508C43.7148 46.6104 48.8875 51.7843 55.2453 51.7843C58.3324 51.7843 61.1781 50.6717 63.2586 48.5452C65.0044 46.7604 66.1615 44.2707 66.3839 41.7765C66.4924 40.5599 66.5024 39.3515 66.4384 38.1346H56.2481ZM77.0934 47.0466C74.0642 47.0466 71.6083 44.5897 71.6083 41.5598C71.6083 38.5293 74.0642 36.0731 77.0934 36.0731C80.1229 36.0731 82.5788 38.5293 82.5788 41.5598C82.5788 44.5897 80.1229 47.0466 77.0934 47.0466ZM82.5795 34.0784C81.0418 32.9508 79.1458 32.2833 77.0934 32.2833C71.9635 32.2833 67.8049 36.4431 67.8049 41.5742C67.8049 46.7059 71.9635 50.8652 77.0934 50.8652C79.1458 50.8652 81.0418 50.198 82.5795 49.0704V50.3561H86.3822V32.7926H82.5795V34.0784ZM94.5453 28.7142H90.7423V32.8073H88.463V36.3973H90.7423V45.7919C90.7423 46.7621 90.8642 47.5782 91.1058 48.2187C91.344 48.8523 91.7082 49.3483 92.1411 49.7358C92.5798 50.1292 93.0946 50.4355 93.7048 50.6094C94.3249 50.784 95.0091 50.8515 95.7322 50.8515C96.4807 50.8515 97.1481 50.7738 97.7176 50.62C98.2464 50.478 98.7532 50.277 99.2248 50.0217V47.1291C98.4746 47.4536 97.7734 47.571 96.9732 47.6083C96.1286 47.648 95.6289 47.4067 95.2131 47.0103C94.7774 46.595 94.5453 46.0538 94.5453 45.146V36.3973H99.2248V32.8073H94.5453V28.7142Z" fill="white"/>
</g>
<mask id="mask1_63_2" style="mask-type:luminance" maskUnits="userSpaceOnUse" x="7" y="23" width="145" height="33">
<path d="M7 23H151.105V56H7V23Z" fill="white"/>
</mask>
<g mask="url(#mask1_63_2)">
<path fill-rule="evenodd" clip-rule="evenodd" d="M23.4964 48.5752C18.4856 48.5752 14.4236 44.5125 14.4236 39.5002C14.4236 34.4883 18.4856 30.425 23.4964 30.425V23C14.3856 23 7 30.3873 7 39.5002C7 48.6128 14.3856 56.0001 23.4964 56.0001C32.6069 56.0001 39.9928 48.6128 39.9928 39.5002H32.5693C32.5693 44.5125 28.5072 48.5752 23.4964 48.5752Z" fill="#2354E6"/>
</g>
<mask id="mask2_63_2" style="mask-type:luminance" maskUnits="userSpaceOnUse" x="7" y="23" width="145" height="33">
<path d="M7 23H151.105V56H7V23Z" fill="white"/>
</mask>
<g mask="url(#mask2_63_2)">
<path fill-rule="evenodd" clip-rule="evenodd" d="M23.4961 39.4997H32.5689V30.4248H23.4961V39.4997Z" fill="#17E6A1"/>
</g>
</g>
<defs>
<clipPath id="clip0_63_2">
<rect width="144.105" height="33" fill="white" transform="translate(7 23)"/>
</clipPath>
</defs>
</svg>
