<svg width="" height="" viewBox="0 0 185 184" fill="none" xmlns="http://www.w3.org/2000/svg">
<path d="M94.9741 20.2963L111.671 59.9843C114.133 65.8337 118.786 70.487 124.635 72.9483L164.325 89.647C165.346 90.0763 165.346 91.5243 164.325 91.9537L124.635 108.652C118.786 111.114 114.133 115.767 111.671 121.616L94.9741 161.304C94.5448 162.326 93.0968 162.326 92.6661 161.304L75.9688 121.616C73.5075 115.767 68.8541 111.114 63.0048 108.652L23.3168 91.9537C22.2941 91.5243 22.2941 90.0763 23.3168 89.647L63.0048 72.9483C68.8541 70.487 73.5075 65.8337 75.9688 59.9843L92.6661 20.2963C93.0968 19.275 94.5448 19.275 94.9741 20.2963Z" fill="currentColor"/>
<path d="M92.578 0.160208L115.949 55.7082C118.41 61.5575 123.063 66.2109 128.913 68.6722L184.461 92.0429L128.913 115.414C123.063 117.874 118.41 122.527 115.949 128.378L92.578 183.926L69.2073 128.378C66.746 122.527 62.0926 117.874 56.2433 115.414L0.695312 92.0429L56.2433 68.6722C62.0926 66.2109 66.746 61.5575 69.2073 55.7082L92.578 0.160208Z" fill="currentColor"/>
</svg>
