<svg width="147" height="169" viewBox="0 0 147 169" fill="none" xmlns="http://www.w3.org/2000/svg">
<path d="M114.374 94.3608C108.954 89.1448 108.954 80.4688 114.374 75.2515L145.993 44.8208C147.271 43.5902 146.047 41.4715 144.342 41.9622L102.179 54.1302C94.9513 56.2155 87.438 51.8782 85.63 44.5755L75.086 1.97683C74.6593 0.255493 72.2113 0.255493 71.7846 1.97683L61.2406 44.5755C59.4326 51.8782 51.9193 56.2155 44.6913 54.1302L2.52864 41.9622C0.823307 41.4715 -0.400691 43.5902 0.877975 44.8208L32.4966 75.2515C37.9166 80.4688 37.9166 89.1448 32.4966 94.3608L0.877975 124.791C-0.400691 126.022 0.823307 128.142 2.52864 127.65L44.6913 115.483C51.9193 113.397 59.4326 117.735 61.2406 125.037L71.7846 167.635C72.2113 169.358 74.6593 169.358 75.086 167.635L85.63 125.037C87.438 117.735 94.9513 113.397 102.179 115.483L144.342 127.65C146.047 128.142 147.271 126.022 145.993 124.791L114.374 94.3608Z" fill="#DC9285"/>
</svg>
